<svg width="552" height="649" viewBox="0 0 552 649" fill="none" xmlns="http://www.w3.org/2000/svg">
<rect width="132" height="59" rx="29.5" transform="matrix(0 -1 -1 0 182 632.918)" fill="#E69875"/>
<rect width="132" height="59" rx="29.5" transform="matrix(0 -1 -1 0 182 162.918)" fill="#E69875"/>
<path d="M29.5908 7.91826C45.9335 7.91826 59.1825 21.1665 59.1826 37.5091V179.214H141.913C159.172 179.214 173.163 193.206 173.163 210.464C173.163 227.723 159.172 241.714 141.913 241.714H31.25C30.9695 241.714 30.6899 241.71 30.4111 241.702C30.1387 241.71 29.8651 241.714 29.5908 241.714C13.2482 241.714 0 228.466 0 212.123V37.5091C0.000158252 21.1666 13.2483 7.91841 29.5908 7.91826Z" fill="#E67E80"/>
<path d="M148.333 398.918C164.718 398.918 178 412.922 178 430.195C178 447.469 164.718 461.473 148.333 461.473H59.3333V601.641C59.3333 618.915 46.0511 632.918 29.6667 632.918C13.2822 632.918 0 618.915 0 601.641V430.195C5.84025e-07 412.922 13.2822 398.918 29.6667 398.918C30.4058 398.918 31.1386 398.946 31.8642 399.002C32.5898 398.946 33.3226 398.918 34.0617 398.918H148.333Z" fill="#E67E80"/>
<path d="M0 319.918C0 302.797 13.2359 288.918 29.5633 288.918H143.437C159.764 288.918 173 302.797 173 319.918C173 337.039 159.764 350.918 143.437 350.918H29.5633C13.2359 350.918 0 337.039 0 319.918Z" fill="#DBBC7F"/>
<path d="M249.881 442.067C338.038 463.856 392.433 521.3 413.065 614.4" stroke="#7FBBB3" stroke-width="65" stroke-linecap="round"/>
<path d="M254.264 555.883C286.617 560.908 305.173 580.504 309.931 614.671" stroke="#D699B6" stroke-width="65" stroke-linecap="round"/>
<path d="M298.971 54.2146C294.213 88.3812 275.658 107.977 243.305 113.002" stroke="#D699B6" stroke-width="65" stroke-linecap="round"/>
<path d="M415.257 33.3812C394.625 126.481 340.23 183.925 252.072 205.714" stroke="#7FBBB3" stroke-width="65" stroke-linecap="round"/>
<path d="M415.257 33.3812C394.625 126.481 340.23 183.925 252.072 205.714" stroke="#7FBBB3" stroke-width="65" stroke-linecap="round"/>
<path d="M520.381 602.647C490.137 449.155 402.344 356.44 257 324.5" stroke="#A7C080" stroke-width="65" stroke-linecap="round"/>
<path d="M519.838 42.6405C489.594 196.132 401.8 288.848 256.456 320.787" stroke="#A7C080" stroke-width="65" stroke-linecap="round"/>
</svg>
